<svg id="Layer_1" data-name="Layer 1" xmlns="http://www.w3.org/2000/svg" viewBox="0 0 100 100"><title>fullscreen_icon</title><path d="M95.83,89.58a6.25,6.25,0,0,1-6.25,6.25H10.41a6.25,6.25,0,0,1-6.24-6.25V10.41a6.25,6.25,0,0,1,6.25-6.24H89.59a6.25,6.25,0,0,1,6.24,6.25ZM89.58,0H10.41A10.43,10.43,0,0,0,0,10.42V89.59A10.44,10.44,0,0,0,10.42,100H89.59A10.43,10.43,0,0,0,100,89.58V10.41A10.44,10.44,0,0,0,89.58,0ZM85.42,66.67a2.08,2.08,0,0,0-2.08,2.08V80.39L61.89,59a2.08,2.08,0,1,0-3,2.94L80.38,83.33H68.75a2.09,2.09,0,0,0,0,4.17H85.42a2,2,0,0,0,.79-.17,2,2,0,0,0,.62-.41l.06,0a2.07,2.07,0,0,0,.45-.68,1.8,1.8,0,0,0,.09-.45,1.76,1.76,0,0,0,.07-.33V68.75a2.08,2.08,0,0,0-2.08-2.08ZM87.34,13.8a2.06,2.06,0,0,0-1.14-1.14,1.86,1.86,0,0,0-.34-.07,2.29,2.29,0,0,0-.44-.09H68.75a2.09,2.09,0,0,0,0,4.17H80.39L58.94,38.11a2.09,2.09,0,0,0,3,3L83.33,19.61V31.25a2.09,2.09,0,0,0,4.17,0V14.58a2,2,0,0,0-.09-.44,1.7,1.7,0,0,0-.07-.34ZM38.11,58.94,16.67,80.39V68.75a2.09,2.09,0,0,0-4.17,0V85.41a2.05,2.05,0,0,0,.16.81,2.12,2.12,0,0,0,.25.36,1.65,1.65,0,0,0,.2.31,1.5,1.5,0,0,0,.23.15,1.65,1.65,0,0,0,.45.29,2,2,0,0,0,.79.17H31.25a2.09,2.09,0,0,0,0-4.17H19.61L41.05,61.89a2.08,2.08,0,0,0-2.94-3ZM19.61,16.67H31.25a2.09,2.09,0,0,0,0-4.17H14.58a2.05,2.05,0,0,0-.34.07,2.24,2.24,0,0,0-.45.09,2.24,2.24,0,0,0-.68.45s0,.05,0,.06a1.86,1.86,0,0,0-.41.62,2,2,0,0,0-.16.8V31.25a2.09,2.09,0,0,0,4.17,0V19.62L38.11,41.06a2.11,2.11,0,0,0,1.47.61,2.09,2.09,0,0,0,1.47-3.56Z" transform="translate(0)"/></svg>