<?xml version="1.0" encoding="utf-8"?>
<!-- Generator: Adobe Illustrator 22.0.1, SVG Export Plug-In . SVG Version: 6.00 Build 0)  -->
<svg version="1.1" id="Layer_1" xmlns="http://www.w3.org/2000/svg" xmlns:xlink="http://www.w3.org/1999/xlink" x="0px" y="0px"
	 viewBox="0 0 300 300" xml:space="preserve">
<g>
	<path class="eye" d="M201.3,149.8c0,0,0-0.1,0-0.1c0,0,0,0,0-0.1c0,0,0-0.1,0-0.1c0,0,0-0.1,0-0.1c0,0,0,0,0,0c-0.1-0.8-0.5-1.5-1.1-2.1
		c-3.2-3.8-7-7.2-10.9-10.3c-8.4-6.7-17.9-12.2-28.5-14.5c-6.1-1.3-12.2-1.4-18.4-0.3c-5.6,1-11,3.1-16,5.6
		c-7.9,4-15.1,9.6-21.3,15.8c-1.2,1.2-2.3,2.3-3.4,3.6c-1.4,1.7-1.4,3.6,0,5.3c3.2,3.8,7,7.2,10.9,10.3c8.4,6.7,17.9,12.2,28.5,14.5
		c6.1,1.3,12.2,1.4,18.4,0.3c5.6-1,11-3.1,16-5.6c7.9-4,15.1-9.6,21.3-15.8c1.2-1.2,2.3-2.3,3.4-3.6c0.6-0.6,0.9-1.3,1.1-2.1
		c0,0,0,0,0,0c0,0,0-0.1,0-0.1c0,0,0-0.1,0-0.1c0,0,0,0,0-0.1c0,0,0-0.1,0-0.1c0-0.1,0-0.1,0-0.2S201.3,149.9,201.3,149.8z
		 M151,169.4c-10.7,0-19.4-8.7-19.4-19.4c0-10.7,8.7-19.4,19.4-19.4s19.4,8.7,19.4,19.4S161.7,169.4,151,169.4z"/>
</g>
<circle class="eye-pupil" cx="151" cy="150" r="6.4"/>
<g class="eye-border">
	<g>
		<path d="M242.3,246.3h-11v-10h6v-6h10v11C247.3,244.1,245.1,246.3,242.3,246.3z"/>
	</g>
	<g>
		<path d="M208.4,246.3h-22.9v-10h22.9V246.3z M162.5,246.3h-22.9v-10h22.9V246.3z M116.6,246.3H93.7v-10h22.9V246.3z"/>
	</g>
	<g>
		<path d="M70.7,246.3h-11c-2.8,0-5-2.2-5-5v-11h10v6h6V246.3z"/>
	</g>
	<g>
		<path d="M64.7,207.3h-10v-22.9h10V207.3z M64.7,161.5h-10v-22.9h10V161.5z M64.7,115.6h-10V92.7h10V115.6z"/>
	</g>
	<g>
		<path d="M64.7,69.7h-10v-11c0-2.8,2.2-5,5-5h11v10h-6V69.7z"/>
	</g>
	<g>
		<path d="M208.4,63.7h-22.9v-10h22.9V63.7z M162.5,63.7h-22.9v-10h22.9V63.7z M116.6,63.7H93.7v-10h22.9V63.7z"/>
	</g>
	<g>
		<path d="M247.3,69.7h-10v-6h-6v-10h11c2.8,0,5,2.2,5,5V69.7z"/>
	</g>
	<g>
		<path d="M247.3,207.3h-10v-22.9h10V207.3z M247.3,161.5h-10v-22.9h10V161.5z M247.3,115.6h-10V92.7h10V115.6z"/>
	</g>
</g>
</svg>
